# xmcd
#
# Track frame offsets:
#	150
#	25557
#	55046
#	77337
#
# Disc length: 1266
#
# Revision: 3
# Processed by: cddbd v1.5.1PL0 Copyright (c) Steve Scherf et al.
# Submitted via: audiograbber 1.81.02
# Normalized: r1:DSETVAR2,TSWAP
#
DISCID=1b04f004
DTITLE=Various Artist - 61 north
DYEAR=1999
DGENRE=Blues-Rock
TTITLE0=Walter Trout - Got A Brocken Heart
TTITLE1=ZZ Top - Waitin' For The Bus
TTITLE2=ZZ Top - Jesue Just Left Chicago
TTITLE3=W.Bell - Born Under A Bad Sign
EXTD=
EXTT0=
EXTT1=
EXTT2=
EXTT3=
PLAYORDER=
